<svg id="Calque_1" data-name="Calque 1" xmlns="http://www.w3.org/2000/svg" viewBox="0 0 35 35"><defs><style>.cls-1{fill:#814494;}.cls-2{fill:#fff;}</style></defs><circle class="cls-1" cx="17.5" cy="17.5" r="17.5"/><path class="cls-2" d="M8,7.85l4.26,7a.75.75,0,0,1-.22.68,25.1,25.1,0,0,1-3.51,1.83l3.51,2s.64.21.23,1.07S8,26.86,8,26.86l6.73-4.26a.58.58,0,0,1,1,.36,36,36,0,0,0,1.69,3.58l1.86-3.83s.39-.79,1,.11S27,27.15,27,27.15l-4.29-6.91s-.68-.57.21-1l3.58-1.74-3.76-1.66s-.71-1,.11-1.62S27,8.1,27,8.1L20.54,12a1.07,1.07,0,0,1-1.72-.4A20,20,0,0,1,17.5,8.82L15.92,12a.61.61,0,0,1-1,.43C14.17,12,8,7.85,8,7.85Z" transform="translate(0 0)"/></svg>