<svg id="Calque_1" data-name="Calque 1" xmlns="http://www.w3.org/2000/svg" viewBox="0 0 35 35"><defs><style>.cls-1{fill:#e62b2a;}.cls-2{fill:#fff;}.cls-3{fill:none;stroke:#1d1d1b;stroke-miterlimit:10;}</style></defs><circle class="cls-1" cx="17.5" cy="17.5" r="17.5"/><path class="cls-2" d="M7.64,24.2l2.61-2.52a19.08,19.08,0,0,1-2.61-2.63c-.11-.44.63-1,.63-1a9.62,9.62,0,0,1,1.24-1.21c.33-.17,2.41,2.23,2.49,2.18S14,16.54,14,16.54s3.6-6.32,3.34-8c0,0,7,.59,10.25-1.12,0,0-2.42,7.39-1.14,10.18,0,0-8.67,2.58-10.42,5.21,0,0,2.41,2.12,2.18,2.37,0,0-1.45,2.35-2.08,2.16s-2.56-2.68-2.76-2.49-2.59,2.75-3,2.67C10.37,27.55,6.62,25,7.64,24.2Z" transform="translate(0 0)"/><path class="cls-3" d="M16.08,27.31" transform="translate(0 0)"/></svg>