<svg id="Calque_1" data-name="Calque 1" xmlns="http://www.w3.org/2000/svg" viewBox="0 0 35 35"><defs><style>.cls-1{fill:#3dab44;}.cls-2{fill:none;stroke:#1d1d1b;stroke-miterlimit:10;}.cls-3{fill:#fff;}</style></defs><circle class="cls-1" cx="17.5" cy="17.5" r="17.5"/><path class="cls-2" d="M23.51,9.46"/><path class="cls-3" d="M14.4,8.06s-.55-.58.44-.76c0,0,2.63-1.44,7.14,0s4.89,6.87,4.89,6.87.25,4.28-2.1,6.38a.3.3,0,0,0,.05.51c.35.25,2.71,2.58,2.71,2.58s.5.31,0,1.07a44.74,44.74,0,0,1-3.35,3.42,1.08,1.08,0,0,1-1.26,0c-.61-.49-2.64-2.69-2.64-2.69a.46.46,0,0,0-.63.13,6.55,6.55,0,0,1-5.25,1.87c-3.26-.13-6.08-1.47-7.49-4.66s-1.22-6.36.28-7.9l3.74,1.44s.56-.08.38.66a5.88,5.88,0,0,0-.5,2.23,3.52,3.52,0,0,0,3.52,3.39A4.4,4.4,0,0,0,16.68,22s-.48-.41-.38-.86a42.21,42.21,0,0,1,3.68-4s.48-.66,1.16.05.91-1.77.91-1.77a3.75,3.75,0,0,0-2-3.67s-1.26-.87-3.8.22c0,0-.45.24-.53-.55L14.4,8.06"/></svg>