<svg id="Calque_1" data-name="Calque 1" xmlns="http://www.w3.org/2000/svg" viewBox="0 0 35 35"><defs><style>.cls-1{fill:#fcc531;}.cls-2{fill:#f6f6f6;}</style></defs><circle class="cls-1" cx="17.5" cy="17.5" r="17.5"/><path class="cls-2" d="M9.35,17.9,24.86,6.34a1,1,0,0,1,1.6.45c.51,1.35-.22,3.65-.22,3.65l-6.32,6.17s-.53.95.37.67,5.13-2.18,5.13-2.18.51,2.32-1,3.5a51.62,51.62,0,0,1-5.78,3.26s-.53.75.9.59a20.57,20.57,0,0,0,3.9-1.18s-.78,2.72-2.78,3.64-2.8,1.91-6.48,2.22S8.73,23.9,8.73,23.9,7.58,20.43,9.35,17.9Z"/></svg>